<mxfile host="app.diagrams.net" modified="2020-07-22T07:24:27.316Z" agent="5.0 (Windows NT 10.0; Win64; x64) AppleWebKit/537.36 (KHTML, like Gecko) Chrome/83.0.4103.116 Safari/537.36" etag="P70ABCKo2lPe2hZ6Uu-R" version="13.4.9" type="github">
  <diagram id="C5RBs43oDa-KdzZeNtuy" name="Page-1">
    <mxGraphModel dx="2130" dy="2096" grid="1" gridSize="10" guides="1" tooltips="1" connect="1" arrows="1" fold="1" page="1" pageScale="1" pageWidth="827" pageHeight="1169" math="0" shadow="0">
      <root>
        <mxCell id="WIyWlLk6GJQsqaUBKTNV-0" />
        <mxCell id="WIyWlLk6GJQsqaUBKTNV-1" parent="WIyWlLk6GJQsqaUBKTNV-0" />
        <mxCell id="mnBdbgV8jX7nQdFRX_Ui-82" value="" style="whiteSpace=wrap;html=1;fillColor=#FFFFFF;" vertex="1" parent="WIyWlLk6GJQsqaUBKTNV-1">
          <mxGeometry x="90" y="610" width="670" height="470" as="geometry" />
        </mxCell>
        <mxCell id="mnBdbgV8jX7nQdFRX_Ui-83" value="&lt;h1&gt;RCDC收到shine返回用户终端初始化选择&lt;/h1&gt;" style="text;html=1;strokeColor=none;fillColor=none;spacing=5;spacingTop=-20;whiteSpace=wrap;overflow=hidden;rounded=0;" vertex="1" parent="WIyWlLk6GJQsqaUBKTNV-1">
          <mxGeometry x="90" y="620" width="240" height="60" as="geometry" />
        </mxCell>
        <mxCell id="mnBdbgV8jX7nQdFRX_Ui-14" value="" style="whiteSpace=wrap;html=1;fillColor=#FFFFFF;" vertex="1" parent="WIyWlLk6GJQsqaUBKTNV-1">
          <mxGeometry x="90" y="-30" width="670" height="610" as="geometry" />
        </mxCell>
        <mxCell id="mnBdbgV8jX7nQdFRX_Ui-10" value="" style="edgeStyle=orthogonalEdgeStyle;rounded=0;orthogonalLoop=1;jettySize=auto;html=1;" edge="1" parent="WIyWlLk6GJQsqaUBKTNV-1" source="mnBdbgV8jX7nQdFRX_Ui-6" target="mnBdbgV8jX7nQdFRX_Ui-9">
          <mxGeometry relative="1" as="geometry" />
        </mxCell>
        <mxCell id="mnBdbgV8jX7nQdFRX_Ui-6" value="开始初始化" style="ellipse;whiteSpace=wrap;html=1;" vertex="1" parent="WIyWlLk6GJQsqaUBKTNV-1">
          <mxGeometry x="365" y="10" width="120" height="80" as="geometry" />
        </mxCell>
        <mxCell id="mnBdbgV8jX7nQdFRX_Ui-12" value="" style="edgeStyle=orthogonalEdgeStyle;rounded=0;orthogonalLoop=1;jettySize=auto;html=1;" edge="1" parent="WIyWlLk6GJQsqaUBKTNV-1" source="mnBdbgV8jX7nQdFRX_Ui-9" target="mnBdbgV8jX7nQdFRX_Ui-11">
          <mxGeometry relative="1" as="geometry" />
        </mxCell>
        <mxCell id="mnBdbgV8jX7nQdFRX_Ui-9" value="检查终端是否存在&lt;br&gt;且在线" style="rhombus;whiteSpace=wrap;html=1;" vertex="1" parent="WIyWlLk6GJQsqaUBKTNV-1">
          <mxGeometry x="350" y="140" width="150" height="80" as="geometry" />
        </mxCell>
        <mxCell id="mnBdbgV8jX7nQdFRX_Ui-65" value="" style="edgeStyle=orthogonalEdgeStyle;rounded=0;orthogonalLoop=1;jettySize=auto;html=1;" edge="1" parent="WIyWlLk6GJQsqaUBKTNV-1" source="mnBdbgV8jX7nQdFRX_Ui-11" target="mnBdbgV8jX7nQdFRX_Ui-64">
          <mxGeometry relative="1" as="geometry" />
        </mxCell>
        <mxCell id="mnBdbgV8jX7nQdFRX_Ui-11" value="向shine发送终端初始化命令" style="whiteSpace=wrap;html=1;" vertex="1" parent="WIyWlLk6GJQsqaUBKTNV-1">
          <mxGeometry x="365" y="270" width="120" height="60" as="geometry" />
        </mxCell>
        <mxCell id="mnBdbgV8jX7nQdFRX_Ui-15" value="&lt;h1&gt;RCDC下发终端初始化命令&lt;/h1&gt;" style="text;html=1;strokeColor=none;fillColor=none;spacing=5;spacingTop=-20;whiteSpace=wrap;overflow=hidden;rounded=0;" vertex="1" parent="WIyWlLk6GJQsqaUBKTNV-1">
          <mxGeometry x="90" y="-20" width="310" height="60" as="geometry" />
        </mxCell>
        <mxCell id="mnBdbgV8jX7nQdFRX_Ui-16" value="" style="whiteSpace=wrap;html=1;fillColor=#FFFFFF;" vertex="1" parent="WIyWlLk6GJQsqaUBKTNV-1">
          <mxGeometry x="790" y="-30" width="750" height="1020" as="geometry" />
        </mxCell>
        <mxCell id="mnBdbgV8jX7nQdFRX_Ui-17" value="&lt;h1&gt;Shine&lt;/h1&gt;" style="text;html=1;strokeColor=none;fillColor=none;spacing=5;spacingTop=-20;whiteSpace=wrap;overflow=hidden;rounded=0;" vertex="1" parent="WIyWlLk6GJQsqaUBKTNV-1">
          <mxGeometry x="790" y="-20" width="100" height="40" as="geometry" />
        </mxCell>
        <mxCell id="mnBdbgV8jX7nQdFRX_Ui-20" value="" style="edgeStyle=orthogonalEdgeStyle;rounded=0;orthogonalLoop=1;jettySize=auto;html=1;" edge="1" parent="WIyWlLk6GJQsqaUBKTNV-1" source="mnBdbgV8jX7nQdFRX_Ui-18" target="mnBdbgV8jX7nQdFRX_Ui-19">
          <mxGeometry relative="1" as="geometry" />
        </mxCell>
        <mxCell id="mnBdbgV8jX7nQdFRX_Ui-18" value="接收到初始化指令" style="ellipse;whiteSpace=wrap;html=1;fillColor=#FFFFFF;" vertex="1" parent="WIyWlLk6GJQsqaUBKTNV-1">
          <mxGeometry x="1060" y="10" width="120" height="80" as="geometry" />
        </mxCell>
        <mxCell id="mnBdbgV8jX7nQdFRX_Ui-24" value="" style="edgeStyle=orthogonalEdgeStyle;rounded=0;orthogonalLoop=1;jettySize=auto;html=1;" edge="1" parent="WIyWlLk6GJQsqaUBKTNV-1" source="mnBdbgV8jX7nQdFRX_Ui-19" target="mnBdbgV8jX7nQdFRX_Ui-23">
          <mxGeometry relative="1" as="geometry" />
        </mxCell>
        <mxCell id="mnBdbgV8jX7nQdFRX_Ui-28" value="否" style="edgeLabel;html=1;align=center;verticalAlign=middle;resizable=0;points=[];" vertex="1" connectable="0" parent="mnBdbgV8jX7nQdFRX_Ui-24">
          <mxGeometry x="-0.2112" y="1" relative="1" as="geometry">
            <mxPoint as="offset" />
          </mxGeometry>
        </mxCell>
        <mxCell id="mnBdbgV8jX7nQdFRX_Ui-36" value="是" style="edgeStyle=orthogonalEdgeStyle;rounded=0;orthogonalLoop=1;jettySize=auto;html=1;" edge="1" parent="WIyWlLk6GJQsqaUBKTNV-1" source="mnBdbgV8jX7nQdFRX_Ui-19" target="mnBdbgV8jX7nQdFRX_Ui-35">
          <mxGeometry relative="1" as="geometry" />
        </mxCell>
        <mxCell id="mnBdbgV8jX7nQdFRX_Ui-19" value="虚机是否运行中" style="rhombus;whiteSpace=wrap;html=1;fillColor=#FFFFFF;" vertex="1" parent="WIyWlLk6GJQsqaUBKTNV-1">
          <mxGeometry x="1040" y="140" width="160" height="80" as="geometry" />
        </mxCell>
        <mxCell id="mnBdbgV8jX7nQdFRX_Ui-27" value="" style="edgeStyle=orthogonalEdgeStyle;rounded=0;orthogonalLoop=1;jettySize=auto;html=1;" edge="1" parent="WIyWlLk6GJQsqaUBKTNV-1" source="mnBdbgV8jX7nQdFRX_Ui-23" target="mnBdbgV8jX7nQdFRX_Ui-25">
          <mxGeometry relative="1" as="geometry" />
        </mxCell>
        <mxCell id="mnBdbgV8jX7nQdFRX_Ui-29" value="否" style="edgeLabel;html=1;align=center;verticalAlign=middle;resizable=0;points=[];" vertex="1" connectable="0" parent="mnBdbgV8jX7nQdFRX_Ui-27">
          <mxGeometry x="-0.2493" y="-1" relative="1" as="geometry">
            <mxPoint as="offset" />
          </mxGeometry>
        </mxCell>
        <mxCell id="mnBdbgV8jX7nQdFRX_Ui-38" value="是" style="edgeStyle=orthogonalEdgeStyle;rounded=0;orthogonalLoop=1;jettySize=auto;html=1;" edge="1" parent="WIyWlLk6GJQsqaUBKTNV-1" source="mnBdbgV8jX7nQdFRX_Ui-23" target="mnBdbgV8jX7nQdFRX_Ui-37">
          <mxGeometry relative="1" as="geometry" />
        </mxCell>
        <mxCell id="mnBdbgV8jX7nQdFRX_Ui-23" value="终端是否有其他&lt;br&gt;操作正在执行" style="rhombus;whiteSpace=wrap;html=1;fillColor=#FFFFFF;" vertex="1" parent="WIyWlLk6GJQsqaUBKTNV-1">
          <mxGeometry x="1040" y="270" width="160" height="80" as="geometry" />
        </mxCell>
        <mxCell id="mnBdbgV8jX7nQdFRX_Ui-31" value="" style="edgeStyle=orthogonalEdgeStyle;rounded=0;orthogonalLoop=1;jettySize=auto;html=1;" edge="1" parent="WIyWlLk6GJQsqaUBKTNV-1" source="mnBdbgV8jX7nQdFRX_Ui-25" target="mnBdbgV8jX7nQdFRX_Ui-30">
          <mxGeometry relative="1" as="geometry" />
        </mxCell>
        <mxCell id="mnBdbgV8jX7nQdFRX_Ui-32" value="否" style="edgeLabel;html=1;align=center;verticalAlign=middle;resizable=0;points=[];" vertex="1" connectable="0" parent="mnBdbgV8jX7nQdFRX_Ui-31">
          <mxGeometry x="-0.4708" relative="1" as="geometry">
            <mxPoint as="offset" />
          </mxGeometry>
        </mxCell>
        <mxCell id="mnBdbgV8jX7nQdFRX_Ui-40" value="是" style="edgeStyle=orthogonalEdgeStyle;rounded=0;orthogonalLoop=1;jettySize=auto;html=1;" edge="1" parent="WIyWlLk6GJQsqaUBKTNV-1" source="mnBdbgV8jX7nQdFRX_Ui-25" target="mnBdbgV8jX7nQdFRX_Ui-39">
          <mxGeometry relative="1" as="geometry" />
        </mxCell>
        <mxCell id="mnBdbgV8jX7nQdFRX_Ui-25" value="是否为公用终端" style="rhombus;whiteSpace=wrap;html=1;fillColor=#FFFFFF;" vertex="1" parent="WIyWlLk6GJQsqaUBKTNV-1">
          <mxGeometry x="1040" y="410" width="160" height="80" as="geometry" />
        </mxCell>
        <mxCell id="mnBdbgV8jX7nQdFRX_Ui-44" value="" style="edgeStyle=orthogonalEdgeStyle;rounded=0;orthogonalLoop=1;jettySize=auto;html=1;" edge="1" parent="WIyWlLk6GJQsqaUBKTNV-1" source="mnBdbgV8jX7nQdFRX_Ui-30" target="mnBdbgV8jX7nQdFRX_Ui-43">
          <mxGeometry relative="1" as="geometry" />
        </mxCell>
        <mxCell id="mnBdbgV8jX7nQdFRX_Ui-30" value="通知shine前端进行初始化操作弹窗" style="whiteSpace=wrap;html=1;fillColor=#FFFFFF;" vertex="1" parent="WIyWlLk6GJQsqaUBKTNV-1">
          <mxGeometry x="1060" y="525" width="120" height="60" as="geometry" />
        </mxCell>
        <mxCell id="mnBdbgV8jX7nQdFRX_Ui-59" style="edgeStyle=orthogonalEdgeStyle;rounded=0;orthogonalLoop=1;jettySize=auto;html=1;exitX=0;exitY=0.5;exitDx=0;exitDy=0;entryX=0;entryY=0.5;entryDx=0;entryDy=0;" edge="1" parent="WIyWlLk6GJQsqaUBKTNV-1" source="mnBdbgV8jX7nQdFRX_Ui-35" target="mnBdbgV8jX7nQdFRX_Ui-55">
          <mxGeometry relative="1" as="geometry" />
        </mxCell>
        <mxCell id="mnBdbgV8jX7nQdFRX_Ui-35" value="向RCDC发送虚机运行中状态码，并记录此次操作，重启终端或退出虚机时执行" style="whiteSpace=wrap;html=1;fillColor=#FFFFFF;" vertex="1" parent="WIyWlLk6GJQsqaUBKTNV-1">
          <mxGeometry x="890" y="150" width="120" height="60" as="geometry" />
        </mxCell>
        <mxCell id="mnBdbgV8jX7nQdFRX_Ui-54" style="edgeStyle=orthogonalEdgeStyle;rounded=0;orthogonalLoop=1;jettySize=auto;html=1;exitX=1;exitY=0.5;exitDx=0;exitDy=0;entryX=0.5;entryY=0;entryDx=0;entryDy=0;" edge="1" parent="WIyWlLk6GJQsqaUBKTNV-1" source="mnBdbgV8jX7nQdFRX_Ui-37" target="mnBdbgV8jX7nQdFRX_Ui-52">
          <mxGeometry relative="1" as="geometry" />
        </mxCell>
        <mxCell id="mnBdbgV8jX7nQdFRX_Ui-37" value="向RCDC返回对应正在进行的终端操作码" style="whiteSpace=wrap;html=1;fillColor=#FFFFFF;" vertex="1" parent="WIyWlLk6GJQsqaUBKTNV-1">
          <mxGeometry x="1260" y="280" width="120" height="60" as="geometry" />
        </mxCell>
        <mxCell id="mnBdbgV8jX7nQdFRX_Ui-60" style="edgeStyle=orthogonalEdgeStyle;rounded=0;orthogonalLoop=1;jettySize=auto;html=1;exitX=0;exitY=0.5;exitDx=0;exitDy=0;" edge="1" parent="WIyWlLk6GJQsqaUBKTNV-1" source="mnBdbgV8jX7nQdFRX_Ui-39">
          <mxGeometry relative="1" as="geometry">
            <mxPoint x="870" y="449.9411764705883" as="targetPoint" />
          </mxGeometry>
        </mxCell>
        <mxCell id="mnBdbgV8jX7nQdFRX_Ui-39" value="公用终端不主动推送给ShineUI，记录到配置文件等待shineUI查询" style="whiteSpace=wrap;html=1;fillColor=#FFFFFF;" vertex="1" parent="WIyWlLk6GJQsqaUBKTNV-1">
          <mxGeometry x="890" y="420" width="120" height="60" as="geometry" />
        </mxCell>
        <mxCell id="mnBdbgV8jX7nQdFRX_Ui-50" value="否" style="edgeStyle=orthogonalEdgeStyle;rounded=0;orthogonalLoop=1;jettySize=auto;html=1;" edge="1" parent="WIyWlLk6GJQsqaUBKTNV-1" source="mnBdbgV8jX7nQdFRX_Ui-43" target="mnBdbgV8jX7nQdFRX_Ui-49">
          <mxGeometry relative="1" as="geometry" />
        </mxCell>
        <mxCell id="mnBdbgV8jX7nQdFRX_Ui-56" value="是" style="edgeStyle=orthogonalEdgeStyle;rounded=0;orthogonalLoop=1;jettySize=auto;html=1;" edge="1" parent="WIyWlLk6GJQsqaUBKTNV-1" source="mnBdbgV8jX7nQdFRX_Ui-43" target="mnBdbgV8jX7nQdFRX_Ui-55">
          <mxGeometry relative="1" as="geometry" />
        </mxCell>
        <mxCell id="mnBdbgV8jX7nQdFRX_Ui-43" value="用户选择是否进行初始化" style="rhombus;whiteSpace=wrap;html=1;fillColor=#FFFFFF;" vertex="1" parent="WIyWlLk6GJQsqaUBKTNV-1">
          <mxGeometry x="1040" y="620" width="160" height="80" as="geometry" />
        </mxCell>
        <mxCell id="mnBdbgV8jX7nQdFRX_Ui-53" value="" style="edgeStyle=orthogonalEdgeStyle;rounded=0;orthogonalLoop=1;jettySize=auto;html=1;" edge="1" parent="WIyWlLk6GJQsqaUBKTNV-1" source="mnBdbgV8jX7nQdFRX_Ui-49" target="mnBdbgV8jX7nQdFRX_Ui-52">
          <mxGeometry relative="1" as="geometry" />
        </mxCell>
        <mxCell id="mnBdbgV8jX7nQdFRX_Ui-49" value="移除配置文件中终端初始化操作记录，并向RCDC上报用户不进行终端初始化" style="whiteSpace=wrap;html=1;fillColor=#FFFFFF;" vertex="1" parent="WIyWlLk6GJQsqaUBKTNV-1">
          <mxGeometry x="1260" y="630" width="120" height="60" as="geometry" />
        </mxCell>
        <mxCell id="mnBdbgV8jX7nQdFRX_Ui-52" value="结束" style="ellipse;whiteSpace=wrap;html=1;fillColor=#FFFFFF;" vertex="1" parent="WIyWlLk6GJQsqaUBKTNV-1">
          <mxGeometry x="1410" y="620" width="120" height="80" as="geometry" />
        </mxCell>
        <mxCell id="mnBdbgV8jX7nQdFRX_Ui-58" value="" style="edgeStyle=orthogonalEdgeStyle;rounded=0;orthogonalLoop=1;jettySize=auto;html=1;" edge="1" parent="WIyWlLk6GJQsqaUBKTNV-1" source="mnBdbgV8jX7nQdFRX_Ui-55" target="mnBdbgV8jX7nQdFRX_Ui-57">
          <mxGeometry relative="1" as="geometry" />
        </mxCell>
        <mxCell id="mnBdbgV8jX7nQdFRX_Ui-55" value="移除配置文件中终端初始化操作记录" style="whiteSpace=wrap;html=1;fillColor=#FFFFFF;" vertex="1" parent="WIyWlLk6GJQsqaUBKTNV-1">
          <mxGeometry x="1060" y="740" width="120" height="60" as="geometry" />
        </mxCell>
        <mxCell id="mnBdbgV8jX7nQdFRX_Ui-57" value="如果开启" style="whiteSpace=wrap;html=1;fillColor=#FFFFFF;" vertex="1" parent="WIyWlLk6GJQsqaUBKTNV-1">
          <mxGeometry x="1060" y="840" width="120" height="60" as="geometry" />
        </mxCell>
        <mxCell id="mnBdbgV8jX7nQdFRX_Ui-67" value="" style="edgeStyle=orthogonalEdgeStyle;rounded=0;orthogonalLoop=1;jettySize=auto;html=1;" edge="1" parent="WIyWlLk6GJQsqaUBKTNV-1" source="mnBdbgV8jX7nQdFRX_Ui-64" target="mnBdbgV8jX7nQdFRX_Ui-66">
          <mxGeometry relative="1" as="geometry" />
        </mxCell>
        <mxCell id="mnBdbgV8jX7nQdFRX_Ui-64" value="根据返回状态码抛出对应处理" style="whiteSpace=wrap;html=1;" vertex="1" parent="WIyWlLk6GJQsqaUBKTNV-1">
          <mxGeometry x="365" y="380" width="120" height="60" as="geometry" />
        </mxCell>
        <mxCell id="mnBdbgV8jX7nQdFRX_Ui-66" value="结束" style="ellipse;whiteSpace=wrap;html=1;" vertex="1" parent="WIyWlLk6GJQsqaUBKTNV-1">
          <mxGeometry x="365" y="480" width="120" height="80" as="geometry" />
        </mxCell>
        <mxCell id="mnBdbgV8jX7nQdFRX_Ui-72" value="" style="edgeStyle=orthogonalEdgeStyle;rounded=0;orthogonalLoop=1;jettySize=auto;html=1;" edge="1" parent="WIyWlLk6GJQsqaUBKTNV-1" source="mnBdbgV8jX7nQdFRX_Ui-68" target="mnBdbgV8jX7nQdFRX_Ui-71">
          <mxGeometry relative="1" as="geometry" />
        </mxCell>
        <mxCell id="mnBdbgV8jX7nQdFRX_Ui-68" value="收到shine返回用户终端初始化选择" style="ellipse;whiteSpace=wrap;html=1;fillColor=#FFFFFF;" vertex="1" parent="WIyWlLk6GJQsqaUBKTNV-1">
          <mxGeometry x="330" y="677.5" width="120" height="80" as="geometry" />
        </mxCell>
        <mxCell id="mnBdbgV8jX7nQdFRX_Ui-76" value="是" style="edgeStyle=orthogonalEdgeStyle;rounded=0;orthogonalLoop=1;jettySize=auto;html=1;" edge="1" parent="WIyWlLk6GJQsqaUBKTNV-1" source="mnBdbgV8jX7nQdFRX_Ui-71" target="mnBdbgV8jX7nQdFRX_Ui-75">
          <mxGeometry relative="1" as="geometry" />
        </mxCell>
        <mxCell id="mnBdbgV8jX7nQdFRX_Ui-78" value="否" style="edgeStyle=orthogonalEdgeStyle;rounded=0;orthogonalLoop=1;jettySize=auto;html=1;" edge="1" parent="WIyWlLk6GJQsqaUBKTNV-1" source="mnBdbgV8jX7nQdFRX_Ui-71" target="mnBdbgV8jX7nQdFRX_Ui-77">
          <mxGeometry relative="1" as="geometry" />
        </mxCell>
        <mxCell id="mnBdbgV8jX7nQdFRX_Ui-71" value="是否进行初始化" style="rhombus;whiteSpace=wrap;html=1;fillColor=#FFFFFF;" vertex="1" parent="WIyWlLk6GJQsqaUBKTNV-1">
          <mxGeometry x="310" y="782.5" width="160" height="80" as="geometry" />
        </mxCell>
        <mxCell id="mnBdbgV8jX7nQdFRX_Ui-80" value="" style="edgeStyle=orthogonalEdgeStyle;rounded=0;orthogonalLoop=1;jettySize=auto;html=1;" edge="1" parent="WIyWlLk6GJQsqaUBKTNV-1" source="mnBdbgV8jX7nQdFRX_Ui-75" target="mnBdbgV8jX7nQdFRX_Ui-79">
          <mxGeometry relative="1" as="geometry" />
        </mxCell>
        <mxCell id="mnBdbgV8jX7nQdFRX_Ui-75" value="记录shine确认进行终端初始化的系统日志" style="whiteSpace=wrap;html=1;fillColor=#FFFFFF;" vertex="1" parent="WIyWlLk6GJQsqaUBKTNV-1">
          <mxGeometry x="330" y="902.5" width="120" height="60" as="geometry" />
        </mxCell>
        <mxCell id="mnBdbgV8jX7nQdFRX_Ui-81" style="edgeStyle=orthogonalEdgeStyle;rounded=0;orthogonalLoop=1;jettySize=auto;html=1;exitX=0.5;exitY=1;exitDx=0;exitDy=0;entryX=1;entryY=0.5;entryDx=0;entryDy=0;" edge="1" parent="WIyWlLk6GJQsqaUBKTNV-1" source="mnBdbgV8jX7nQdFRX_Ui-77" target="mnBdbgV8jX7nQdFRX_Ui-79">
          <mxGeometry relative="1" as="geometry" />
        </mxCell>
        <mxCell id="mnBdbgV8jX7nQdFRX_Ui-77" value="记录shine取消进行终端初始化的系统日志" style="whiteSpace=wrap;html=1;fillColor=#FFFFFF;" vertex="1" parent="WIyWlLk6GJQsqaUBKTNV-1">
          <mxGeometry x="505" y="792.5" width="120" height="60" as="geometry" />
        </mxCell>
        <mxCell id="mnBdbgV8jX7nQdFRX_Ui-79" value="结束" style="ellipse;whiteSpace=wrap;html=1;fillColor=#FFFFFF;" vertex="1" parent="WIyWlLk6GJQsqaUBKTNV-1">
          <mxGeometry x="330" y="982.5" width="120" height="80" as="geometry" />
        </mxCell>
      </root>
    </mxGraphModel>
  </diagram>
</mxfile>
